<svg width="126" height="30" viewBox="0 0 193 46" fill="#F2F2F2" xmlns="http://www.w3.org/2000/svg">
<path d="M11.8893 34.9389C11.7398 34.9389 11.65 34.879 11.6201 34.7594C11.5902 34.6398 11.6351 34.5351 11.7547 34.4453C13.1605 33.4882 14.2074 32.0974 14.8953 30.2729C15.6132 28.4184 16.1366 26.4593 16.4656 24.3955C16.7049 22.9598 16.8694 21.5241 16.9591 20.0884C17.0788 18.6228 17.2433 17.1722 17.4526 15.7365C17.5723 14.9588 17.7069 14.226 17.8564 13.5381C18.006 12.8202 18.1854 12.1472 18.3948 11.5191C18.6042 10.891 18.9332 10.2031 19.3819 9.45531C19.8305 8.70755 20.339 8.01962 20.9073 7.3915C21.5055 6.73348 22.1037 6.23996 22.7019 5.91094C23.2104 5.61184 23.659 5.41742 24.0479 5.32769C23.2104 4.90895 22.1486 4.53507 20.8624 4.20606C19.5763 3.87704 18.32 3.71254 17.0937 3.71254C15.7178 3.71254 14.3569 3.90696 13.011 4.29579C11.665 4.65471 10.3789 5.16319 9.15254 5.82121C7.89631 6.50915 6.71486 7.43637 5.60818 8.60287C4.5015 9.73946 3.58923 10.9957 2.87139 12.3716C2.15354 13.7474 1.7348 15.1532 1.61515 16.5889C1.58524 17.3068 1.67498 17.9797 1.88435 18.6079C2.09372 19.2061 2.45264 19.6697 2.96112 19.9987C3.2004 20.1482 3.48455 20.2679 3.81356 20.3576C4.17248 20.4174 4.53141 20.4473 4.89033 20.4473C5.54836 20.4473 6.16152 20.3426 6.72981 20.1333C6.81954 20.1034 6.92423 20.0884 7.04387 20.0884C7.19342 20.0884 7.2682 20.1333 7.2682 20.223C7.2682 20.4025 7.10369 20.552 6.77468 20.6717C6.17647 20.9708 5.44367 21.1203 4.57627 21.1203C3.67896 21.1203 2.87139 20.9409 2.15354 20.5819C1.34596 20.1632 0.777667 19.55 0.448654 18.7424C0.149551 17.905 0 17.0525 0 16.1851C0 14.4204 0.433699 12.7753 1.3011 11.2499C2.16849 9.7245 3.27517 8.37854 4.62114 7.21204C5.99701 6.04554 7.44766 5.14823 8.97308 4.52012C10.2891 3.95182 11.6351 3.54803 13.011 3.30875C14.3868 3.06947 15.7328 2.94983 17.0489 2.94983C18.335 2.94983 19.6959 3.14424 21.1316 3.53308C22.5972 3.892 23.8385 4.4603 24.8554 5.23796C25.0947 5.41742 25.1246 5.56697 24.9452 5.68661C24.9153 5.77635 24.8255 5.82121 24.676 5.82121C23.7488 5.82121 23.001 6.13527 22.4327 6.76339C21.8644 7.3915 21.3111 8.18412 20.7727 9.14125C20.2642 10.0685 19.9202 11.1901 19.7408 12.5062C19.5613 13.7923 19.4566 15.1682 19.4267 16.6338C19.4267 18.0695 19.4118 19.4902 19.3819 20.896C19.3519 22.2719 19.2473 23.5131 19.0678 24.6198C18.7986 26.1751 18.335 27.6856 17.677 29.1512C17.0189 30.6168 16.0169 31.9478 14.671 33.1442C15.4187 32.875 16.2263 32.2619 17.0937 31.3048C17.9611 30.3177 18.8435 29.1363 19.7408 27.7604C20.668 26.3845 21.5503 24.9638 22.3878 23.4982C23.2552 22.0027 24.0479 20.6118 24.7657 19.3257C25.4836 18.0396 26.0668 17.0077 26.5155 16.23C27.5623 14.4653 28.6391 12.7454 29.7458 11.0705C30.8824 9.39549 32.0489 7.87006 33.2453 6.49419C34.681 4.87904 36.0867 3.71254 37.4626 2.99469C38.8684 2.27684 40.1396 1.91792 41.2762 1.91792C42.2931 1.91792 43.1605 2.17216 43.8784 2.68063C44.5962 3.18911 45.1047 3.892 45.4038 4.78931C45.4337 4.84913 45.4487 4.93886 45.4487 5.0585C45.4487 5.29778 45.3739 5.41742 45.2243 5.41742C45.1047 5.41742 45 5.26787 44.9103 4.96877C44.5813 3.80227 43.8335 3.21902 42.667 3.21902C41.8295 3.21902 40.8126 3.56299 39.6161 4.25092C38.4197 4.90895 37.0439 6.01563 35.4885 7.57096C34.1127 8.94683 32.7667 10.547 31.4506 12.3716C30.1346 14.1961 28.8485 16.0804 27.5922 18.0246C26.6949 19.4005 25.7976 20.7763 24.9003 22.1522C24.003 23.4982 23.0758 24.8292 22.1186 26.1452C20.9521 27.7903 19.7707 29.3008 18.5743 30.6766C17.3779 32.0226 16.2114 33.0844 15.0748 33.8621C13.9681 34.6398 12.9063 34.9987 11.8893 34.9389Z"/>
<path d="M30.6171 33.4134C29.7796 33.4134 29.1665 33.1442 28.7776 32.6059C28.3888 32.0376 28.1944 31.3496 28.1944 30.542C28.1944 30.3028 28.2094 30.0635 28.2393 29.8242C28.2991 29.555 28.3589 29.2858 28.4187 29.0166C28.7477 27.8202 29.2562 26.4892 29.9442 25.0236C30.662 23.5281 31.3499 22.1971 32.008 21.0306C32.3968 20.3726 32.7557 19.9089 33.0847 19.6398C33.4137 19.3407 33.7727 19.1313 34.1615 19.0116C34.5503 18.8621 35.0139 18.6976 35.5523 18.5181C35.7019 18.4583 35.8514 18.4134 36.001 18.3835C36.1505 18.3536 36.315 18.3237 36.4945 18.2938C35.8963 18.892 35.2831 19.6098 34.655 20.4473C34.0568 21.2848 33.3988 22.4364 32.6809 23.902C32.2921 24.6796 31.9033 25.547 31.5144 26.5042C31.1555 27.4613 30.8415 28.3586 30.5723 29.1961C30.3031 30.0336 30.1535 30.6916 30.1236 31.1702C30.0937 31.7385 30.1685 32.1422 30.3479 32.3815C30.5274 32.6208 30.7667 32.7405 31.0658 32.7405C31.5743 32.7405 32.0528 32.561 32.5015 32.2021C32.98 31.8431 33.3988 31.4693 33.7577 31.0804C34.4157 30.3327 35.0289 29.5101 35.5972 28.6128C36.1954 27.7155 36.7786 26.7584 37.3469 25.7415C37.4367 25.6218 37.5115 25.562 37.5713 25.562C37.6909 25.562 37.7507 25.6517 37.7507 25.8312C37.7507 25.9807 37.7208 26.1004 37.661 26.1901C37.1226 27.1771 36.5543 28.1642 35.9561 29.1512C35.3579 30.1383 34.6251 31.0655 33.7577 31.9329C33.3689 32.3217 32.9053 32.6657 32.3669 32.9648C31.8584 33.2639 31.2752 33.4134 30.6171 33.4134ZM36.0907 15.7813C35.7617 15.7813 35.4776 15.6617 35.2383 15.4224C35.0289 15.1831 34.9242 14.899 34.9242 14.57C34.9242 14.1512 35.0887 13.7773 35.4177 13.4483C35.7767 13.1193 36.1655 12.9249 36.5842 12.8651C36.9132 12.8651 37.1824 12.9847 37.3918 13.224C37.6311 13.4334 37.7507 13.7175 37.7507 14.0764C37.7507 14.4653 37.5862 14.8541 37.2572 15.2429C36.9282 15.6019 36.5394 15.7813 36.0907 15.7813Z"/>
<path d="M45.3274 33.4134C44.46 33.4134 43.772 33.1442 43.2636 32.6059C42.785 32.0675 42.5457 31.3945 42.5457 30.5869C42.5457 30.1981 42.6205 29.7494 42.7701 29.241C43.1888 27.9249 43.8468 26.6238 44.7441 25.3377C45.6713 24.0216 46.4341 22.7205 47.0323 21.4344C47.2416 21.0156 47.3463 20.6418 47.3463 20.3127C47.3463 19.9837 47.2416 19.7444 47.0323 19.5949C46.8528 19.4154 46.6285 19.3257 46.3593 19.3257C45.9704 19.3257 45.4769 19.4902 44.8787 19.8192C44.3104 20.1183 43.6524 20.7016 42.9046 21.569C42.456 22.1074 41.9475 22.7654 41.3792 23.543C40.8109 24.3207 40.3473 25.0236 39.9884 25.6517C39.3902 26.6687 38.8518 27.7006 38.3732 28.7474C37.8947 29.7644 37.4759 30.7066 37.117 31.574C36.8179 32.2619 36.459 32.7105 36.0402 32.9199C35.6215 33.0994 35.2177 33.1742 34.8289 33.1442C34.44 33.1143 34.1409 33.1143 33.9316 33.1442C34.7691 31.4992 35.5916 29.7644 36.3992 27.9399C37.2067 26.1153 37.8947 24.2908 38.463 22.4663C38.7322 21.6288 38.9565 20.8212 39.1359 20.0435C39.3154 19.236 39.3902 18.7125 39.3603 18.4733V18.3835C39.3603 18.1442 39.4799 18.0844 39.7192 18.2041C40.108 18.4134 40.3772 18.7275 40.5268 19.1462C40.6763 19.5351 40.7511 19.9837 40.7511 20.4922C40.7511 21.0605 40.6763 21.6737 40.5268 22.3317C40.3772 22.9598 40.1978 23.5281 39.9884 24.0366C40.3772 23.4982 40.796 22.9598 41.2446 22.4214C41.6933 21.8531 42.1868 21.3147 42.7252 20.8063C43.3533 20.1781 44.0263 19.6398 44.7441 19.1911C45.462 18.7125 46.2396 18.4733 47.0771 18.4733C47.8847 18.4733 48.468 18.6527 48.8269 19.0116C49.2157 19.3706 49.4101 19.8491 49.4101 20.4473C49.4101 21.0754 49.2307 21.7933 48.8717 22.6009C48.4829 23.5281 48.0043 24.4553 47.4361 25.3825C46.8977 26.3097 46.4041 27.2071 45.9555 28.0745C45.8658 28.2539 45.7162 28.5381 45.5068 28.9269C45.3274 29.2858 45.1629 29.6896 45.0133 30.1383C44.9535 30.3476 44.8937 30.572 44.8339 30.8112C44.774 31.0206 44.7441 31.2449 44.7441 31.4842C44.7441 31.7833 44.8039 32.0675 44.9236 32.3367C45.0731 32.5759 45.3423 32.6956 45.7312 32.6956C46.2396 32.6956 46.7182 32.5311 47.1669 32.2021C47.6454 31.8431 48.0492 31.4693 48.3782 31.0804C49.0662 30.3327 49.6943 29.5101 50.2626 28.6128C50.8608 27.6856 51.444 26.7135 52.0123 25.6966C52.1021 25.5769 52.1619 25.5171 52.1918 25.5171C52.3114 25.5171 52.3712 25.6517 52.3712 25.9209C52.3712 26.1004 52.3413 26.235 52.2815 26.3247C51.7431 27.3117 51.1748 28.2838 50.5766 29.241C49.9784 30.1682 49.2456 31.0655 48.3782 31.9329C47.9894 32.3217 47.5407 32.6657 47.0323 32.9648C46.5238 33.2639 45.9555 33.4134 45.3274 33.4134Z"/>
<path d="M53.5006 33.4583C52.7528 33.4583 52.0799 33.2489 51.4817 32.8302C50.9134 32.3815 50.6292 31.6637 50.6292 30.6766C50.6292 29.6298 50.8834 28.4782 51.3919 27.222C51.9004 25.9658 52.379 24.8441 52.8276 23.8571C53.0669 23.3785 53.381 22.7355 53.7698 21.9279C54.1885 21.0904 54.6372 20.2679 55.1157 19.4603H53.0071C52.9173 19.4603 52.8725 19.3855 52.8725 19.236C52.8725 19.1163 52.9173 18.9967 53.0071 18.877C53.0968 18.7275 53.2015 18.6527 53.3211 18.6527C54.1586 18.6527 54.7867 18.5779 55.2055 18.4284C55.6242 18.2788 55.9831 18.0695 56.2822 17.8003C56.7608 17.3815 57.2244 16.8431 57.6731 16.1851C58.1516 15.5271 58.6152 14.9588 59.0639 14.4802C59.3929 14.0615 59.7967 13.7474 60.2753 13.5381C60.7837 13.3287 61.1128 13.2539 61.2623 13.3137C61.1128 13.5231 60.8735 13.882 60.5445 14.3905C60.2155 14.899 59.8715 15.4523 59.5126 16.0505C59.1536 16.6487 58.8246 17.2021 58.5255 17.7105C58.2264 18.219 58.032 18.563 57.9423 18.7424H60.9034C60.9931 18.7424 61.038 18.7724 61.038 18.8322C61.038 18.9518 60.9632 19.0864 60.8137 19.236C60.694 19.3855 60.5744 19.4603 60.4547 19.4603H57.5385C57.0001 20.3875 56.357 21.5989 55.6093 23.0944C54.8914 24.56 54.2483 25.9807 53.68 27.3566C53.5604 27.6258 53.351 28.1642 53.0519 28.9718C52.7827 29.7793 52.6481 30.5271 52.6481 31.215C52.6481 31.6637 52.7379 32.0376 52.9173 32.3367C53.1267 32.6358 53.4707 32.7853 53.9492 32.7853C54.4577 32.7853 55.0111 32.6059 55.6093 32.2469C56.2075 31.8581 56.6711 31.4693 57.0001 31.0804C57.688 30.3327 58.3161 29.5101 58.8844 28.6128C59.4527 27.7155 60.021 26.7584 60.5893 25.7415C60.6791 25.6218 60.7688 25.562 60.8585 25.562C60.9782 25.562 61.038 25.6517 61.038 25.8312C61.038 25.9807 61.0081 26.1004 60.9482 26.1901C60.4099 27.1771 59.8266 28.1642 59.1985 29.1512C58.6003 30.1383 57.8675 31.0655 57.0001 31.9329C56.6113 32.3217 56.0878 32.6806 55.4298 33.0096C54.7718 33.3088 54.1287 33.4583 53.5006 33.4583Z"/>
<path d="M69.8936 33.4583C68.9365 33.4583 68.2785 33.1592 67.9196 32.561C67.5606 31.9329 67.3812 31.2449 67.3812 30.4972C67.3812 30.3476 67.3961 30.0934 67.426 29.7345C67.4859 29.3456 67.5457 28.9867 67.6055 28.6577C67.1868 29.226 66.6783 29.8541 66.0801 30.542C65.5118 31.23 64.9285 31.8132 64.3303 32.2918C63.3732 33.0695 62.5058 33.4583 61.7281 33.4583C60.9804 33.4583 60.3971 33.1442 59.9784 32.5161C59.5896 31.888 59.3951 31.0954 59.3951 30.1383C59.3951 28.9119 59.6643 27.6707 60.2027 26.4144C60.7411 25.1582 61.444 23.9767 62.3114 22.8701C63.2087 21.7335 64.1957 20.7614 65.2725 19.9538C65.9006 19.5052 66.6633 19.1462 67.5606 18.877C68.4879 18.5779 69.4151 18.4284 70.3423 18.4284C71.3892 18.4284 72.3014 18.5929 73.0791 18.9219C73.8867 19.221 74.44 19.6547 74.7391 20.223C74.111 21.0306 73.4679 22.0326 72.8099 23.229C72.1519 24.3955 71.5836 25.4573 71.105 26.4144C70.776 27.0725 70.4171 27.895 70.0282 28.882C69.6394 29.8392 69.445 30.6617 69.445 31.3496C69.445 31.6487 69.5198 31.9478 69.6693 32.2469C69.8189 32.546 70.103 32.6956 70.5218 32.6956C71.0003 32.6956 71.4639 32.5161 71.9126 32.1572C72.3612 31.7983 72.7351 31.4394 73.0342 31.0804C73.7222 30.3327 74.3503 29.5101 74.9186 28.6128C75.4869 27.7155 76.0552 26.7584 76.6234 25.7415C76.7132 25.6218 76.8029 25.562 76.8926 25.562C77.0123 25.562 77.0721 25.6517 77.0721 25.8312C77.0721 25.9807 77.0422 26.1004 76.9824 26.1901C76.4739 27.1771 75.9056 28.1642 75.2775 29.1512C74.6494 30.1383 73.9016 31.0655 73.0342 31.9329C72.6155 32.3516 72.122 32.7105 71.5537 33.0096C70.9854 33.3088 70.432 33.4583 69.8936 33.4583ZM62.7152 32.0675C63.2835 32.0675 63.8966 31.7684 64.5547 31.1702C65.2426 30.542 65.9006 29.7943 66.5287 28.9269C67.1868 28.0296 67.77 27.1771 68.2785 26.3696C68.8169 25.5321 69.2356 24.889 69.5347 24.4404C70.1628 23.4533 70.7461 22.6308 71.2845 21.9728C71.8229 21.3147 72.6603 20.8063 73.7969 20.4473C73.8568 20.4473 73.9016 20.4473 73.9315 20.4473C73.9913 20.4174 74.0512 20.4025 74.111 20.4025C73.8418 19.9837 73.3931 19.6697 72.765 19.4603C72.1369 19.2509 71.5238 19.1462 70.9255 19.1462C69.9983 19.1462 69.101 19.4005 68.2336 19.9089C67.3662 20.4174 66.5736 21.0605 65.8558 21.8382C65.1678 22.6457 64.4948 23.5281 63.8368 24.4852C63.1788 25.4423 62.6404 26.4144 62.2217 27.4015C61.8328 28.3885 61.6384 29.3307 61.6384 30.228C61.6384 30.7066 61.7132 31.1403 61.8627 31.5291C62.0422 31.888 62.3263 32.0675 62.7152 32.0675Z"/>
<path d="M74.8926 45.3925C74.4141 45.5121 73.9355 45.572 73.4569 45.572C72.5596 45.572 71.8866 45.3476 71.438 44.899C70.9893 44.4802 70.765 43.9568 70.765 43.3287C70.765 42.7903 70.9445 42.2071 71.3034 41.5789C71.6623 40.9807 72.2007 40.4423 72.9185 39.9638C73.8458 39.3357 74.6833 38.8272 75.431 38.4384C76.2087 38.0794 77.0462 37.7056 77.9435 37.3167C78.8408 36.9578 79.9624 36.4643 81.3084 35.8362C81.7869 34.879 82.2505 33.7873 82.6992 32.561C83.1479 31.3347 83.5816 30.1233 84.0003 28.9269C84.449 27.7305 84.8677 26.6986 85.2565 25.8312C85.1369 25.9508 84.8976 26.2649 84.5387 26.7734C84.1798 27.2818 83.9106 27.6707 83.7311 27.9399C83.2825 28.5381 82.7291 29.2709 82.0711 30.1383C81.4131 30.9757 80.7102 31.6936 79.9624 32.2918C79.0053 33.0695 78.1379 33.4583 77.3602 33.4583C76.6125 33.4583 76.0292 33.1442 75.6105 32.5161C75.2216 31.888 75.0272 31.0954 75.0272 30.1383C75.0272 29.4802 75.117 28.8222 75.2964 28.1642C76.2236 24.7245 78.0781 21.9877 80.8597 19.9538C81.428 19.5351 82.1309 19.2061 82.9684 18.9668C83.8059 18.6976 84.6434 18.563 85.4809 18.563C86.6474 18.563 87.6643 18.8172 88.5317 19.3257L88.6663 19.1911C89.3542 18.1742 90.0422 17.3217 90.7301 16.6338C91.4181 15.9458 92.2406 15.4972 93.1977 15.2878C92.1808 16.3945 91.2087 17.8003 90.2815 19.5052C89.3542 21.1801 88.5018 22.9598 87.7241 24.8441C86.9764 26.7285 86.2884 28.5231 85.6603 30.228C85.0322 31.903 84.4938 33.3088 84.0452 34.4453C85.6902 33.6079 87.1708 32.4862 88.4868 31.0804C89.8328 29.6447 90.9694 28.0894 91.8966 26.4144C92.106 25.9957 92.3303 25.7863 92.5696 25.7863C92.6294 25.7863 92.6593 25.8312 92.6593 25.9209C92.6593 26.0406 92.5995 26.2051 92.4799 26.4144C91.9415 27.3716 91.3582 28.3137 90.7301 29.241C90.1319 30.1383 89.444 30.9757 88.6663 31.7534C88.0083 32.4713 87.2605 33.1293 86.423 33.7275C85.6155 34.3257 84.7181 34.8491 83.7311 35.2978C83.0133 36.9728 82.2505 38.5131 81.443 39.9189C80.6354 41.3247 79.7082 42.5062 78.6613 43.4633C77.6145 44.4204 76.3582 45.0635 74.8926 45.3925ZM78.3024 32.0675C78.9006 32.0675 79.5287 31.7684 80.1867 31.1702C80.8448 30.542 81.5028 29.7943 82.1608 28.9269C82.8188 28.0296 83.4021 27.1771 83.9106 26.3696C84.449 25.5321 84.8527 24.889 85.1219 24.4404C85.5706 23.7524 86.0492 23.0196 86.5576 22.2419C87.0661 21.4643 87.6494 20.6118 88.3074 19.6846C87.7391 19.3855 87.1259 19.236 86.4679 19.236C85.6005 19.236 84.7331 19.4753 83.8657 19.9538C83.0282 20.4324 82.2655 21.0605 81.5776 21.8382C80.5606 22.9448 79.7082 24.1413 79.0202 25.4274C78.3323 26.6836 77.8537 27.7903 77.5845 28.7474C77.435 29.2858 77.3602 29.8392 77.3602 30.4075C77.3602 30.8561 77.42 31.2449 77.5397 31.574C77.6892 31.903 77.9435 32.0675 78.3024 32.0675ZM74.6234 44.4503C75.6703 44.1213 76.5826 43.5381 77.3602 42.7006C78.1379 41.893 78.8109 40.9508 79.3792 39.8741C79.9774 38.8272 80.4858 37.7654 80.9046 36.6886C79.9774 37.1672 78.781 37.6756 77.3154 38.214C75.8797 38.7823 74.5187 39.56 73.2326 40.547C72.6643 40.9957 72.2456 41.4593 71.9764 41.9379C71.6773 42.4164 71.5277 42.8651 71.5277 43.2838C71.5277 43.6727 71.6623 44.0017 71.9315 44.2709C72.2007 44.5401 72.6194 44.6747 73.1877 44.6747C73.3971 44.6747 73.6214 44.6597 73.8607 44.6298C74.1 44.5999 74.3542 44.5401 74.6234 44.4503Z"/>
<path d="M97.1753 33.548C95.4704 33.548 94.1394 33.0844 93.1823 32.1572C92.2551 31.23 91.7915 29.9887 91.7915 28.4334C91.7915 27.895 91.8513 27.3267 91.9709 26.7285C92.0906 26.1004 92.285 25.4573 92.5542 24.7993C92.9729 23.8122 93.5113 22.8402 94.1693 21.883C94.8273 20.9259 95.62 20.1183 96.5472 19.4603C97.4744 18.8023 98.5063 18.4284 99.6429 18.3387C100.062 18.3087 100.45 18.3387 100.809 18.4284C101.168 18.5181 101.482 18.6976 101.752 18.9668C101.991 19.1761 102.155 19.4453 102.245 19.7744C102.365 20.0735 102.425 20.3875 102.425 20.7165C102.425 21.6437 102.14 22.5859 101.572 23.543C101.004 24.4703 100.286 25.2479 99.4186 25.876C98.5512 26.5042 97.6539 26.8182 96.7267 26.8182C95.8892 26.8182 95.1564 26.5191 94.5283 25.9209C94.2591 26.8481 94.1245 27.7753 94.1245 28.7026C94.1245 29.8392 94.3787 30.8112 94.8872 31.6188C95.4256 32.3965 96.3378 32.7853 97.624 32.7853C98.9101 32.7853 100.017 32.4414 100.944 31.7534C101.901 31.0655 102.724 30.213 103.412 29.1961C104.129 28.1492 104.758 27.1472 105.296 26.1901C105.356 26.1004 105.416 26.0555 105.475 26.0555C105.595 26.0555 105.655 26.1751 105.655 26.4144C105.655 26.564 105.61 26.7285 105.52 26.908C104.952 27.9249 104.294 28.9419 103.546 29.9588C102.828 30.9757 101.946 31.8282 100.899 32.5161C99.8822 33.2041 98.6409 33.548 97.1753 33.548ZM94.7526 25.2479C94.9619 25.547 95.2012 25.7714 95.4704 25.9209C95.7695 26.0406 96.0686 26.1004 96.3677 26.1004C97.0856 26.1004 97.8333 25.8312 98.611 25.2928C99.3887 24.7245 100.017 24.0665 100.495 23.3187C100.705 22.9897 100.884 22.556 101.034 22.0176C101.213 21.4792 101.303 20.9708 101.303 20.4922C101.303 20.0735 101.213 19.7145 101.034 19.4154C100.884 19.0864 100.57 18.9219 100.092 18.9219C99.5532 18.9219 98.9101 19.2509 98.1623 19.9089C97.4445 20.567 96.7566 21.4194 96.0985 22.4663C95.8892 22.8252 95.6499 23.2439 95.3807 23.7225C95.1414 24.2011 94.932 24.7095 94.7526 25.2479Z"/>
<path d="M122.965 37.7205C120.722 37.7205 118.837 37.3317 117.312 36.554C115.816 35.8063 114.68 34.7893 113.902 33.5032C113.154 32.2469 112.78 30.8412 112.78 29.2858C112.78 28.0894 112.99 26.8631 113.409 25.6069C113.857 24.3506 114.515 23.1093 115.383 21.883C116.28 20.6567 117.387 19.5351 118.703 18.5181C120.019 17.5012 121.454 16.6936 123.01 16.0954C124.565 15.4673 126.105 15.1532 127.631 15.1532C129.156 15.1532 130.278 15.4673 130.996 16.0954C131.744 16.6936 132.117 17.4713 132.117 18.4284C132.117 18.9967 131.983 19.6248 131.714 20.3127C131.444 21.0007 131.026 21.6886 130.457 22.3765C129.68 23.3636 128.723 24.2459 127.586 25.0236C126.449 25.7714 125.238 26.3696 123.952 26.8182C122.696 27.237 121.439 27.4463 120.183 27.4463C119.974 27.4463 119.779 27.4463 119.6 27.4463C119.42 27.4164 119.226 27.3865 119.017 27.3566C118.897 27.3267 118.837 27.2519 118.837 27.1323C118.867 26.9827 118.942 26.9229 119.062 26.9528C120.288 27.0425 121.589 26.8481 122.965 26.3696C124.371 25.891 125.702 25.233 126.958 24.3955C128.214 23.558 129.201 22.6457 129.919 21.6587C130.756 20.4922 131.175 19.4154 131.175 18.4284C131.175 17.7105 130.921 17.1123 130.413 16.6338C129.904 16.1253 129.096 15.8711 127.99 15.8711C126.524 15.8711 125.103 16.1851 123.728 16.8132C122.352 17.4114 121.066 18.2041 119.869 19.1911C118.703 20.1781 117.701 21.2549 116.863 22.4214C116.056 23.5281 115.442 24.6946 115.024 25.9209C114.605 27.1472 114.396 28.3287 114.396 29.4653C114.396 30.7813 114.695 32.0077 115.293 33.1442C115.891 34.2509 116.803 35.1333 118.03 35.7913C119.256 36.4792 120.826 36.8232 122.741 36.8232C124.864 36.8232 126.793 36.4493 128.528 35.7016C130.263 34.9837 131.758 33.9967 133.015 32.7405C134.271 31.4543 135.228 30.0037 135.886 28.3885C136.574 26.7434 136.918 25.0086 136.918 23.1841C136.918 22.4065 136.888 21.6587 136.828 20.9409C136.798 20.1931 136.664 19.4753 136.424 18.7873C136.095 17.7405 135.677 16.6487 135.168 15.5121C134.66 14.3755 134.196 13.209 133.777 12.0126C133.389 10.8162 133.194 9.60486 133.194 8.37854C133.194 7.27186 133.418 6.16518 133.867 5.0585C134.465 3.71254 135.333 2.63577 136.469 1.82819C137.636 0.990704 138.997 0.57196 140.552 0.57196C141.12 0.57196 141.689 0.661691 142.257 0.841152C142.855 0.990703 143.364 1.2599 143.782 1.64873C144.201 2.03756 144.411 2.57595 144.411 3.26388C144.411 3.74245 144.261 4.08642 143.962 4.29579C143.663 4.50516 143.349 4.60985 143.02 4.60985C142.84 4.60985 142.721 4.59489 142.661 4.56498L142.795 3.66767C142.795 2.91992 142.571 2.36658 142.122 2.00765C141.704 1.61882 141.15 1.4244 140.462 1.4244C139.625 1.4244 138.802 1.66368 137.995 2.14225C137.187 2.5909 136.589 3.17415 136.2 3.892C135.602 4.99868 135.303 6.13527 135.303 7.30177C135.303 8.31872 135.467 9.32071 135.796 10.3078C136.155 11.2649 136.574 12.2071 137.053 13.1343C137.561 14.0316 138.025 14.899 138.443 15.7365C139.64 18.0096 140.238 20.3875 140.238 22.8701C140.238 25.0236 139.789 27.0126 138.892 28.8372C137.995 30.6318 136.753 32.1871 135.168 33.5032C133.583 34.8491 131.744 35.881 129.65 36.5989C127.586 37.3466 125.358 37.7205 122.965 37.7205Z"/>
<path d="M144.064 33.4583C143.316 33.4583 142.643 33.2489 142.045 32.8302C141.477 32.3815 141.192 31.6637 141.192 30.6766C141.192 29.6298 141.447 28.4782 141.955 27.222C142.464 25.9658 142.942 24.8441 143.391 23.8571C143.63 23.3785 143.944 22.7355 144.333 21.9279C144.752 21.0904 145.2 20.2679 145.679 19.4603H143.57C143.481 19.4603 143.436 19.3855 143.436 19.236C143.436 19.1163 143.481 18.9967 143.57 18.877C143.66 18.7275 143.765 18.6527 143.884 18.6527C144.722 18.6527 145.35 18.5779 145.769 18.4284C146.187 18.2788 146.546 18.0695 146.846 17.8003C147.324 17.3815 147.788 16.8431 148.236 16.1851C148.715 15.5271 149.179 14.9588 149.627 14.4802C149.956 14.0615 150.36 13.7474 150.839 13.5381C151.347 13.3287 151.676 13.2539 151.826 13.3137C151.676 13.5231 151.437 13.882 151.108 14.3905C150.779 14.899 150.435 15.4523 150.076 16.0505C149.717 16.6487 149.388 17.2021 149.089 17.7105C148.79 18.219 148.595 18.563 148.506 18.7424H151.467C151.556 18.7424 151.601 18.7724 151.601 18.8322C151.601 18.9518 151.526 19.0864 151.377 19.236C151.257 19.3855 151.138 19.4603 151.018 19.4603H148.102C147.563 20.3875 146.92 21.5989 146.173 23.0944C145.455 24.56 144.812 25.9807 144.243 27.3566C144.124 27.6258 143.914 28.1642 143.615 28.9718C143.346 29.7793 143.211 30.5271 143.211 31.215C143.211 31.6637 143.301 32.0376 143.481 32.3367C143.69 32.6358 144.034 32.7853 144.513 32.7853C145.021 32.7853 145.574 32.6059 146.173 32.2469C146.771 31.8581 147.234 31.4693 147.563 31.0804C148.251 30.3327 148.879 29.5101 149.448 28.6128C150.016 27.7155 150.584 26.7584 151.153 25.7415C151.242 25.6218 151.332 25.562 151.422 25.562C151.541 25.562 151.601 25.6517 151.601 25.8312C151.601 25.9807 151.571 26.1004 151.512 26.1901C150.973 27.1771 150.39 28.1642 149.762 29.1512C149.164 30.1383 148.431 31.0655 147.563 31.9329C147.175 32.3217 146.651 32.6806 145.993 33.0096C145.335 33.3088 144.692 33.4583 144.064 33.4583Z"/>
<path d="M154.535 34.0415C153.398 34.0415 152.411 33.6826 151.574 32.9648C150.766 32.217 150.362 31.0804 150.362 29.555C150.362 28.5979 150.527 27.6108 150.856 26.5939C151.215 25.547 151.603 24.6198 152.022 23.8122C152.8 22.3466 153.772 21.0754 154.938 19.9987C156.135 18.892 157.556 18.3387 159.201 18.3387C160.786 18.3387 161.893 18.7724 162.521 19.6398C163.149 20.5072 163.463 21.569 163.463 22.8252C163.463 23.3337 163.418 23.8571 163.328 24.3955C163.089 25.8611 162.595 27.2818 161.848 28.6577C162.057 28.9568 162.326 29.211 162.655 29.4204C163.014 29.5999 163.403 29.6896 163.822 29.6896C164.54 29.6896 165.153 29.4952 165.661 29.1064C166.17 28.7175 166.603 28.239 166.962 27.6707C167.351 27.0725 167.68 26.5191 167.949 26.0106C168.129 25.6816 168.293 25.5171 168.443 25.5171C168.533 25.5171 168.578 25.5769 168.578 25.6966C168.578 25.8162 168.488 26.0854 168.308 26.5042C167.8 27.5211 167.202 28.4035 166.514 29.1512C165.826 29.899 164.928 30.2729 163.822 30.2729C162.805 30.2729 162.027 29.9139 161.489 29.1961C160.651 30.572 159.634 31.7235 158.438 32.6507C157.242 33.5779 155.94 34.0415 154.535 34.0415ZM154.624 33.5032C156.09 33.5032 157.541 32.7853 158.976 31.3496C159.395 30.9309 159.769 30.4972 160.098 30.0485C160.457 29.57 160.771 29.0914 161.04 28.6128C160.651 28.1642 160.367 27.6856 160.188 27.1771C160.038 26.6388 159.963 26.1303 159.963 25.6517C159.963 24.904 160.098 24.2459 160.367 23.6776C160.636 23.0794 161.01 22.7803 161.489 22.7803C161.728 22.7803 161.952 22.9 162.162 23.1393C162.401 23.3785 162.551 23.7524 162.61 24.2609C162.7 23.8421 162.745 23.3935 162.745 22.9149C162.745 21.7783 162.536 20.881 162.117 20.223C161.698 19.5351 160.995 19.1911 160.008 19.1911C159.41 19.1911 158.797 19.4304 158.169 19.9089C157.541 20.3576 156.942 20.9109 156.374 21.569C155.836 22.227 155.357 22.9 154.938 23.5879C154.52 24.2758 154.206 24.8441 153.996 25.2928C153.488 26.3995 153.114 27.3865 152.875 28.2539C152.665 29.1213 152.561 29.884 152.561 30.542C152.561 31.4992 152.755 32.232 153.144 32.7405C153.563 33.2489 154.056 33.5032 154.624 33.5032Z"/>
<path d="M176.56 32.3367C176.052 32.7554 175.543 33.0545 175.035 33.234C174.556 33.4433 174.108 33.548 173.689 33.548C172.941 33.548 172.313 33.2938 171.805 32.7853C171.326 32.2469 171.087 31.544 171.087 30.6766C171.087 30.1682 171.206 29.555 171.446 28.8372C171.835 27.7604 172.418 26.7285 173.196 25.7415C173.973 24.7544 174.721 23.7524 175.439 22.7355C175.887 22.1373 176.112 21.554 176.112 20.9857C176.112 20.6866 176.022 20.4324 175.843 20.223C175.693 20.0136 175.409 19.894 174.99 19.8641C174.751 19.8043 174.482 19.7744 174.183 19.7744C173.883 19.7744 173.584 19.7744 173.285 19.7744H172.029C171.85 19.7744 171.685 19.7744 171.536 19.7744C171.386 19.7744 171.251 19.7594 171.132 19.7295C171.012 20.4772 170.758 21.3147 170.369 22.2419C170.01 23.1692 169.591 24.0964 169.113 25.0236C168.634 25.9508 168.171 26.7883 167.722 27.5361C167.602 27.7155 167.498 27.8053 167.408 27.8053C167.318 27.8053 167.273 27.7155 167.273 27.5361C167.273 27.3267 167.318 27.1622 167.408 27.0425C168.036 25.8162 168.634 24.6198 169.202 23.4533C169.801 22.2569 170.204 21.0156 170.414 19.7295C169.726 19.3407 169.262 18.6677 169.023 17.7105C168.993 17.561 168.963 17.4264 168.933 17.3068C168.933 17.1572 168.933 17.0226 168.933 16.903C168.933 16.3646 169.038 15.9159 169.247 15.557C169.487 15.1682 169.756 14.9738 170.055 14.9738C170.474 14.9738 170.818 15.3775 171.087 16.1851C171.147 16.3945 171.192 16.6338 171.221 16.903C171.251 17.1423 171.266 17.3815 171.266 17.6208C171.266 17.89 171.251 18.1442 171.221 18.3835C171.221 18.5929 171.206 18.7724 171.177 18.9219C171.386 18.9817 171.655 19.0266 171.984 19.0565C172.343 19.0864 172.732 19.1014 173.151 19.1014C173.779 19.1014 174.437 19.0864 175.125 19.0565C175.813 18.9967 176.396 18.9668 176.874 18.9668C177.443 18.9668 177.832 19.0864 178.041 19.3257C178.25 19.565 178.355 19.8641 178.355 20.223C178.355 20.6717 178.235 21.1652 177.996 21.7036C177.787 22.212 177.577 22.6457 177.368 23.0047C176.979 23.7225 176.605 24.3656 176.246 24.9339C175.917 25.4723 175.543 26.0555 175.125 26.6836C174.497 27.6408 174.033 28.5231 173.734 29.3307C173.465 30.1084 173.33 30.7664 173.33 31.3048C173.33 32.232 173.674 32.6956 174.362 32.6956C174.93 32.6956 175.663 32.2918 176.56 31.4842C177.129 30.9757 177.652 30.3775 178.131 29.6896C178.639 28.9718 179.088 28.2539 179.477 27.5361C179.895 26.7883 180.239 26.1751 180.509 25.6966C180.568 25.6069 180.628 25.562 180.688 25.562C180.808 25.562 180.868 25.6816 180.868 25.9209C180.868 26.1004 180.823 26.2649 180.733 26.4144C180.224 27.3417 179.641 28.3586 178.983 29.4653C178.325 30.572 177.518 31.5291 176.56 32.3367Z"/>
<path d="M184.563 33.5032C182.828 33.5032 181.602 33.0545 180.884 32.1572C180.525 31.7684 180.271 31.3048 180.121 30.7664C179.972 30.228 179.897 29.6747 179.897 29.1064C179.897 28.3885 179.987 27.6707 180.166 26.9528C180.346 26.2051 180.57 25.5171 180.839 24.889C181.258 23.902 181.811 22.9149 182.499 21.9279C183.187 20.9109 184.01 20.0585 184.967 19.3706C185.954 18.6826 187.031 18.3387 188.197 18.3387C188.975 18.3387 189.588 18.5331 190.037 18.9219C190.485 19.3107 190.71 19.9089 190.71 20.7165C190.71 21.6437 190.425 22.5859 189.857 23.543C189.289 24.4703 188.571 25.2479 187.704 25.876C186.836 26.5042 185.939 26.8182 185.012 26.8182C184.174 26.8182 183.441 26.5191 182.813 25.9209C182.634 26.3995 182.484 26.9379 182.365 27.5361C182.245 28.1044 182.185 28.6876 182.185 29.2858C182.185 30.213 182.365 31.0206 182.723 31.7085C183.112 32.3965 183.8 32.7405 184.787 32.7405C185.505 32.7405 186.193 32.561 186.851 32.2021C187.539 31.8132 188.152 31.3496 188.691 30.8112C189.289 30.1831 189.857 29.5101 190.395 28.7923C190.934 28.0745 191.457 27.237 191.966 26.2798C192.026 26.1901 192.07 26.1452 192.1 26.1452C192.22 26.1452 192.28 26.2798 192.28 26.549C192.28 26.7285 192.22 26.9229 192.1 27.1323C191.652 27.9399 191.128 28.7624 190.53 29.5999C189.932 30.4075 189.319 31.1103 188.691 31.7085C188.122 32.2469 187.509 32.6806 186.851 33.0096C186.193 33.3387 185.43 33.5032 184.563 33.5032ZM183.038 25.2479C183.247 25.547 183.486 25.7714 183.755 25.9209C184.054 26.0406 184.354 26.1004 184.653 26.1004C185.371 26.1004 186.118 25.8312 186.896 25.2928C187.674 24.7245 188.302 24.0665 188.78 23.3187C188.99 22.9897 189.169 22.556 189.319 22.0176C189.498 21.4792 189.588 20.9708 189.588 20.4922C189.588 20.0735 189.498 19.7145 189.319 19.4154C189.169 19.0864 188.855 18.9219 188.377 18.9219C187.838 18.9219 187.195 19.2509 186.447 19.9089C185.729 20.567 185.042 21.4194 184.383 22.4663C184.174 22.8252 183.935 23.2439 183.666 23.7225C183.426 24.2011 183.217 24.7095 183.038 25.2479Z"/>
</svg>
